<svg xmlns="http://www.w3.org/2000/svg" width="256" height="256"><path fill-opacity=".016" d="M0 128.004v128.004l128.25-.254 128.25-.254.254-127.75L257.008 0H0v128.004m.485.496c0 70.4.119 99.053.265 63.672.146-35.38.146-92.98 0-128C.604 29.153.485 58.1.485 128.5" fill="#1976D2" fill-rule="evenodd"/><path fill-opacity=".059" d="M106.5 1.475C84.072 5.623 66.986 13.207 49.331 26.852 26.072 44.828 10.221 69.457 2.899 99 .834 107.331.543 110.9.533 128c-.01 17.843.216 20.392 2.652 30 4.719 18.606 12.024 33.624 23.654 48.624C51.425 238.335 87.57 256 127.872 256c22.44 0 40.308-4.275 59.275-14.181 34.899-18.228 58.381-49.637 67.123-89.783 2.168-9.956 3.624-38.781 2.018-39.945-.449-.325-1.63-4.641-2.627-9.591-5.059-25.143-16.555-46.397-35.16-65.001-19.336-19.337-42.416-31.441-68.427-35.888-11.295-1.93-33.495-2-43.574-.136M81 119.5V190l47.25-.231c25.988-.127 36.563-.36 23.5-.518l-23.75-.287v-10.148l-4.75.256c-2.612.141-6.922.182-9.576.092l-4.827-.164.288-3.984c.241-3.338-.234-4.523-2.924-7.298-1.766-1.822-3.211-3.72-3.211-4.218 0-.498 1.409-2.358 3.131-4.135 2.849-2.94 3.141-3.841 3.25-10.047l.119-6.818 9.25-.288 9.25-.287V127H94.164l-.332-7.088c-.183-3.898-.144-7.273.085-7.5.229-.226 7.991-.412 17.25-.412H128v-11.953l-17.106-.273-17.106-.274v-15l17.106-.274L128 83.953V67.051l15.75-.303c8.662-.166 1.463-.403-16-.525L96 66V49H81v70.5M160.349 57c0 4.675.173 6.587.383 4.25.211-2.338.211-6.163 0-8.5-.21-2.338-.383-.425-.383 4.25m2.464-7.317c.721.289 1.584.253 1.916-.079.332-.332-.258-.568-1.312-.525-1.165.048-1.402.285-.604.604M.402 128c0 8.525.154 12.012.341 7.75.188-4.262.188-11.237 0-15.5-.187-4.263-.341-.775-.341 7.75m137.035 11.25l-2.937 3.25 3.25-2.937c3.029-2.738 3.71-3.563 2.937-3.563-.172 0-1.635 1.463-3.25 3.25m10.521 1c4.144 4.415 5.042 5.209 5.042 4.458 0-.16-2.137-2.298-4.75-4.75l-4.75-4.458 4.458 4.75m1.479 11l-2.937 3.25 3.25-2.937c3.029-2.738 3.71-3.563 2.937-3.563-.172 0-1.635 1.463-3.25 3.25" fill="#1976D2" fill-rule="evenodd"/><path fill-opacity=".331" d="M113 1.018C83.953 5.06 60.492 16.139 40.237 35.38 21.04 53.615 8.419 76.132 2.896 102c-3.169 14.842-3.169 37.158 0 52 9.616 45.038 42.077 81.213 85.705 95.512 59.655 19.55 124.795-7.547 153.517-63.861 8.132-15.944 13.642-37.635 14.624-57.57.228-4.631-.021-9.356-.554-10.5-.533-1.145-1.708-6.545-2.611-12-5.953-35.973-28.235-68.143-60.723-87.669C182.168 11.49 166.892 5.626 154 2.998c-11.858-2.418-31.158-3.35-41-1.98M159.788 57l-.288 8.5-31.25.195-31.25.194V49H79.987l.256 70.75.257 70.75h95v-142h-15.424l-.288 8.5M.36 128c0 5.225.169 7.363.375 4.75.206-2.613.206-6.888 0-9.5S.36 122.775.36 128m130.817 19c-6.027 6.05-11.321 11-11.763 11-.443 0-2.071-1.213-3.618-2.696l-2.814-2.695-5.009 5.42-5.009 5.42 8.32 8.321 8.32 8.32 16.698-16.137C145.486 155.077 153 147.278 153 146.62c0-1.221-9.042-10.62-10.216-10.62-.356 0-5.579 4.95-11.607 11" fill="#1976D2" fill-rule="evenodd"/><path fill-opacity=".437" d="M127.94 42.75c-.033.413-.008 5.351.055 10.974l.115 10.225-15.805.303c-8.693.166-1.774.403 15.374.525l31.179.223.321-8.75c.177-4.812.179-9.987.005-11.5l-.317-2.75h-15.433c-8.489 0-15.461.337-15.494.75M63 127.837v78.836l48.75.663c26.813.364 56.063.662 65 .663L193 208V49h-17v142H80V49H63v78.837m72.155 15.507l-7.288 7.337-.184 10.16c-.1 5.588.049 10.16.332 10.16.283-.001 6.025-5.524 12.76-12.275l12.245-12.275-5.288-5.222-5.288-5.223-7.289 7.338m-27.718 15.906l-2.937 3.25 3.25-2.937c3.029-2.738 3.71-3.563 2.937-3.563-.172 0-1.635 1.463-3.25 3.25M104 163.313c0 .172 1.463 1.635 3.25 3.25l3.25 2.937-2.937-3.25c-2.738-3.029-3.563-3.71-3.563-2.937" fill="#1976D2" fill-rule="evenodd"/></svg>